<svg width="50" height="58" viewBox="0 0 50 58" fill="none" xmlns="http://www.w3.org/2000/svg">
<rect x="8.44873" y="49.1508" width="50" height="4" rx="2" transform="rotate(-55 8.44873 49.1508)" fill="#B1B4C5"/>
<path fill-rule="evenodd" clip-rule="evenodd" d="M24.4761 12.3299C24.3004 11.3223 24.9784 10.3642 25.9871 10.1946L38.0639 8.16425C39.0641 7.99611 40.0123 8.6671 40.1864 9.66622C40.3621 10.6739 39.6841 11.632 38.6754 11.8016L26.5986 13.8319C25.5985 14 24.6502 13.329 24.4761 12.3299Z" fill="#B1B4C5"/>
<path fill-rule="evenodd" clip-rule="evenodd" d="M40.8438 23.7908C39.8454 23.9688 38.8905 23.3073 38.7065 22.3099L36.4838 10.2671C36.2982 9.26121 36.9667 8.29641 37.9736 8.11683C38.972 7.93876 39.9269 8.60032 40.111 9.59765L42.3336 21.6405C42.5192 22.6464 41.8508 23.6112 40.8438 23.7908Z" fill="#B1B4C5"/>
</svg>
