<svg width="50" height="58" viewBox="0 0 50 58" fill="none" xmlns="http://www.w3.org/2000/svg">
<rect width="50" height="4" rx="2" transform="matrix(0.573576 0.819152 0.819152 -0.573576 8.44873 8.84918)" fill="#B1B4C5"/>
<path fill-rule="evenodd" clip-rule="evenodd" d="M24.4761 45.6701C24.3004 46.6777 24.9784 47.6358 25.9871 47.8054L38.0639 49.8358C39.0641 50.0039 40.0123 49.3329 40.1864 48.3338C40.3621 47.3261 39.6841 46.368 38.6754 46.1984L26.5986 44.1681C25.5985 44 24.6502 44.671 24.4761 45.6701Z" fill="#B1B4C5"/>
<path fill-rule="evenodd" clip-rule="evenodd" d="M40.8438 34.2092C39.8454 34.0312 38.8905 34.6927 38.7065 35.6901L36.4838 47.7329C36.2982 48.7388 36.9667 49.7036 37.9736 49.8832C38.972 50.0612 39.9269 49.3997 40.111 48.4023L42.3336 36.3595C42.5192 35.3536 41.8508 34.3888 40.8438 34.2092Z" fill="#B1B4C5"/>
</svg>
