<svg width="56" height="55" viewBox="0 0 56 55" fill="none" xmlns="http://www.w3.org/2000/svg">
<path fill-rule="evenodd" clip-rule="evenodd" d="M52.3043 1.22721C50.1279 0.136399 47.3106 0.525675 44.3713 2.32278C42.0469 3.74408 39.9132 5.90282 38.8029 7.95654C36.6827 11.8781 37.5141 15.3361 38.0492 16.7959C37.3176 19.0901 36.3075 20.9966 35.023 22.513C33.9876 21.2321 33.41 19.6185 33.41 17.9307V17.8484L36.1313 15.0757C36.422 14.7793 37.1748 13.6115 36.1312 12.5481C35.4463 11.8503 34.3356 11.8503 33.6506 12.5481L33.4098 12.7935V12.2354C33.4098 11.2484 32.6244 10.4482 31.6558 10.4482C30.6871 10.4482 29.9018 11.2484 29.9018 12.2354V12.7935L29.661 12.5481C28.9761 11.8503 27.8654 11.8503 27.1804 12.5481C26.4954 13.2459 26.4954 14.3776 27.1804 15.0756L29.9019 17.8482V17.9305C29.9019 20.4842 30.7847 22.9254 32.3674 24.8517C29.5252 26.6784 25.843 27.2971 21.3416 26.6953C19.7176 26.478 18.0779 26.451 16.4705 26.6097C14.4548 24.6015 11.6921 23.4619 8.78205 23.4619H8.70013L5.93976 20.7817C5.24508 20.1071 4.11845 20.1071 3.42366 20.7817C2.72897 21.4562 2.72897 22.5502 3.42366 23.2249L3.66792 23.462H3.11246C2.12993 23.462 1.33333 24.2356 1.33333 25.1896C1.33333 26.1436 2.12993 26.9168 3.11246 26.9168H3.66804L3.42366 27.1541C2.72897 27.8287 2.72897 28.9226 3.42366 29.5973C3.77111 29.9347 4.22641 30.1034 4.68171 30.1034C5.137 30.1034 5.59242 29.9347 5.93988 29.5973L8.70024 26.9169H8.78217C9.85941 26.9169 10.906 27.1516 11.8548 27.5879C11.9829 27.5535 12.1113 27.5202 12.24 27.488C12.2007 27.5007 12.1613 27.5136 12.1221 27.5266C9.11176 28.5249 6.39653 30.2582 4.27022 32.5389C0.603578 36.4714 -0.739153 41.3758 0.386997 46.7223C1.21629 50.6592 3.1068 53.4487 3.18684 53.5656C3.5259 54.0602 4.08587 54.3447 4.67092 54.3447C4.8139 54.3447 4.9584 54.3277 5.10138 54.2928C5.83023 54.1143 6.36981 53.5049 6.45408 52.7654C6.46345 52.6842 7.43607 44.5965 12.4592 40.0203C13.0989 39.4375 15.5175 37.5802 19.7822 38.1503C21.2875 38.3516 22.7436 38.4717 24.1496 38.5107C24.9207 39.9901 25.1584 41.7003 24.7975 43.3573L24.78 43.4375L21.4865 45.5516C20.6576 46.0838 20.4173 47.1865 20.9501 48.0145C21.4828 48.8428 22.5867 49.0825 23.4157 48.5505L23.7071 48.3634L23.5886 48.9072C23.3791 49.8691 23.9898 50.8185 24.9526 51.0278C25.0805 51.0555 25.208 51.0689 25.3337 51.0689C26.1547 51.0689 26.8937 50.4994 27.0755 49.6653L27.194 49.1215L27.3813 49.4127C27.7222 49.9427 28.2969 50.2319 28.8839 50.2319C29.2141 50.2319 29.5483 50.1402 29.8469 49.9487C30.6757 49.4165 30.916 48.3138 30.3832 47.4858L28.2669 44.1957L28.2843 44.1154C28.7028 42.1946 28.5844 40.2256 27.9734 38.4067C32.8275 37.9889 36.9803 36.4631 40.3772 33.8404C40.7787 33.5305 41.1687 33.206 41.5472 32.8673C43.4825 34.5131 45.9712 35.4343 48.5784 35.4343H48.6601L51.4104 38.1145C51.7567 38.452 52.2102 38.6206 52.664 38.6206C53.1175 38.6206 53.5713 38.4519 53.9174 38.1145C54.6097 37.44 54.6097 36.3461 53.9174 35.6714L53.674 35.4342H54.2275C55.2063 35.4343 56 34.6608 56 33.7068C56 32.7528 55.2063 31.9793 54.2273 31.9793H53.6738L53.9172 31.7421C54.6095 31.0676 54.6095 29.9736 53.9172 29.299C53.225 28.6242 52.1026 28.6245 51.4103 29.299L48.66 31.9792H48.5783C46.8699 31.9792 45.2374 31.3879 43.9548 30.3287C45.9124 27.9022 47.4459 24.9678 48.5375 21.5538C51.3557 20.5649 53.353 18.9385 54.4798 16.7131C56.4761 12.7705 57.1822 3.67183 52.3043 1.22721Z" fill="currentColor"/>
</svg>
