<svg width="67" height="81" viewBox="0 0 67 81" fill="none" xmlns="http://www.w3.org/2000/svg">
<path d="M64.5288 16.3231C63.9688 16.1082 63.3857 16.015 62.8475 16.0526C62.0698 16.107 61.4418 16.4242 61.0697 16.9433C58.8782 20.0268 57.0834 25.8501 55.6361 30.529C54.9718 32.6928 54.08 35.5885 53.4343 36.9628C52.7608 33.1125 53.5216 19.008 53.8167 13.5762L53.8215 13.4885C54.0261 9.71476 54.0536 9.05304 54.0088 8.76242C53.6837 6.69233 52.8578 5.33352 51.553 4.72531C50.234 4.10851 48.5209 4.3814 46.6755 5.49677C45.7503 6.05875 45.4944 7.98779 44.7002 16.7314L44.6974 16.7699C44.26 21.5735 43.2536 32.634 42.0149 34.476C40.6174 31.8989 38.6948 17.2565 37.8649 10.9186C37.2841 6.47985 36.9459 3.93121 36.7186 3.1616C36.2398 1.54896 34.2189 0.176748 32.2179 0.100718C30.5524 0.0176994 29.1858 0.868682 28.5336 2.34731C27.3134 3.71122 27.7445 8.23426 29.0932 18.9469C29.7352 24.0452 31.0604 34.5765 30.2264 35.7578C28.5635 35.5762 25.7088 28.9796 21.7404 16.1456C20.6271 12.5514 20.2825 11.4703 19.9405 10.9971C19.2664 9.34892 16.9755 8.0776 14.9214 8.22124C14.746 8.2335 14.5755 8.25635 14.407 8.28863C13.3318 8.50314 10.8783 9.49718 11.4013 14.0847C12.8501 20.4449 14.4238 25.1147 15.9511 29.6472L15.982 29.7379C16.8958 32.4527 17.7597 35.0178 18.5624 37.8646C20.4545 44.5858 19.7188 48.756 19.7098 48.803C19.6469 49.2323 19.515 49.4943 19.3165 49.5859C19.2451 49.6197 19.1536 49.6397 19.0504 49.6469C18.4508 49.6888 17.5514 49.2901 17.0879 49.0301C16.0292 46.9977 10.7576 37.3106 5.98089 35.967L5.80928 35.9162L5.63563 35.9324C3.88365 36.0986 2.59546 36.7637 1.80819 37.909C0.560636 39.7202 1.07705 42.0269 1.20232 42.4894L1.27274 42.6552C1.31173 42.7249 5.14238 49.7395 5.73524 53.0026C6.24647 55.8001 8.89146 58.8321 11.018 61.2681L11.1056 61.3672C11.7993 62.1644 12.398 62.8532 12.8701 63.4909C19.0405 69.9553 28.7988 75.393 28.8784 75.4366C30.0959 76.3392 30.7729 77.2111 30.8444 77.9617C30.8897 78.4531 30.6356 78.7468 30.6268 78.7569L30.4143 78.9794L31.7631 80.2963L57.508 78.4796L58.6056 73.4276C61.9997 59.1594 61.2911 46.9936 61.2799 46.9124C61.2923 46.4648 62.2437 42.1362 63.0086 38.6389L63.0312 38.5499C64.5561 31.5828 66.4526 22.9137 66.8163 19.6166C66.9745 18.2068 66.0766 16.9116 64.5288 16.3231Z" fill="#3B4262"/>
</svg>
