<svg width="65" height="65" viewBox="0 0 65 65" fill="none" xmlns="http://www.w3.org/2000/svg">
<path d="M61.441 17.0849C60.5645 5.98144 48.1492 7.11516 48.1492 7.11516C42.9088 -2.16339 34.7225 4.55726 34.7225 4.55726C28.4334 -4.53637 20.548 3.8903 20.548 3.8903C6.95227 2.41765 7.47924 13.5827 7.47924 13.5827C7.15928 17.132 9.39533 28.1125 9.39533 28.1125C7.37831 21.7837 3.00338 27.0372 3.00338 27.0372C-2.37493 35.3736 1.67361 39.9369 1.67361 39.9369C8.95124 48.5045 24.4608 58.7868 24.4608 58.7868C30.0767 62.0183 27.7013 64.8998 27.7013 64.8998L61.6693 59.2622L62.4503 52.7918C67.6138 37.1052 61.441 17.0849 61.441 17.0849Z" fill="#3B4262"/>
</svg>
