<svg width="40" height="54" viewBox="0 0 40 54" fill="none" xmlns="http://www.w3.org/2000/svg">
<path d="M39.0837 29.676L38.31 28.9039C36.4612 27.058 33.439 26.656 31.1819 27.9505L26.3622 30.6996L27.3668 8.68141C27.3668 6.83556 25.8621 5.33307 24.0111 5.33307C23.6114 5.33307 23.2267 5.4035 22.8698 5.53249L22.9895 4.35093C22.9896 2.48379 21.4614 0.965332 19.5848 0.965332C17.8494 0.965332 16.3938 2.26421 16.21 3.92978L13.1173 22.5762C13.0766 22.8299 12.6363 22.8043 12.5894 22.6444L8.9366 7.69517C8.53692 6.30467 7.24595 5.33317 5.79689 5.33317C4.7945 5.33317 3.86259 5.78319 3.23854 6.56807C2.61655 7.35294 2.39004 8.36273 2.62086 9.33637L3.33046 12.3467C2.92647 12.3136 2.52043 12.368 2.13357 12.4981C0.693024 12.9769 -0.185438 14.4122 0.0475396 15.9285L2.19769 28.2642C2.19769 33.1311 3.05266 36.7321 3.77077 38.8947C4.17897 40.1285 4.3863 41.4262 4.3863 42.7517C4.3863 43.9056 4.22596 45.0541 3.90752 46.163L2.24036 51.9875C2.14629 52.317 2.21256 52.671 2.41774 52.9451C2.62507 53.2181 2.94781 53.3791 3.29189 53.3791H22.9895C23.3422 53.3791 23.6713 53.2106 23.8765 52.9259C24.0838 52.6412 24.1395 52.2743 24.0282 51.9416C24.0176 51.9129 23.1028 49.0934 23.9684 45.2577C25.0671 44.3683 28.9121 41.2481 30.2928 39.9899C32.5755 37.9094 38.8293 31.4814 39.0943 31.2084C39.5112 30.7807 39.5069 30.0982 39.0837 29.676Z" fill="currentColor"/>
</svg>
